<?xml version="1.0" standalone="no"?>
<!DOCTYPE svg PUBLIC "-//W3C//DTD SVG 20010904//EN"
 "http://www.w3.org/TR/2001/REC-SVG-20010904/DTD/svg10.dtd">
<svg version="1.0" xmlns="http://www.w3.org/2000/svg"
 width="459.000000pt" height="459.000000pt" viewBox="0 0 459.000000 459.000000"
 preserveAspectRatio="xMidYMid meet">
<metadata>
Created by potrace 1.14, written by Peter Selinger 2001-2017
</metadata>
<g transform="translate(0.000000,459.000000) scale(0.100000,-0.100000)"
fill="#000000" stroke="none">
<path d="M1973 4574 c-76 -15 -110 -33 -156 -80 -71 -73 -98 -163 -93 -309 2
-55 7 -113 10 -130 25 -113 78 -258 134 -364 l34 -64 -20 -26 c-32 -43 -45
-37 -76 35 -37 84 -137 251 -197 329 -160 206 -354 339 -544 372 -69 12 -197
6 -270 -11 -169 -42 -358 -165 -435 -286 -204 -318 -23 -776 382 -969 108 -51
216 -74 348 -75 138 0 194 7 316 45 91 28 214 88 309 150 43 27 78 49 79 47
11 -18 26 -63 26 -77 0 -10 -19 -35 -42 -56 -162 -141 -575 -546 -730 -715
-169 -185 -326 -385 -413 -527 -165 -268 -240 -419 -311 -626 -73 -210 -87
-290 -88 -497 0 -120 4 -170 18 -224 67 -253 236 -425 483 -492 91 -24 279
-26 392 -2 242 49 453 169 651 367 160 161 266 317 367 543 133 299 225 658
249 978 11 136 12 152 13 217 l1 62 73 -55 c86 -65 222 -133 334 -168 354
-109 729 -42 1041 187 250 184 414 431 473 715 20 96 27 245 14 327 -34 222
-140 427 -310 601 -243 247 -530 331 -920 269 -16 -2 -60 -13 -98 -24 -289
-84 -561 -256 -787 -498 l-84 -91 -18 40 -18 39 39 52 c78 103 149 258 183
397 20 83 19 247 -3 330 -52 202 -184 299 -356 264z m110 -221 c19 -11 42 -38
57 -68 63 -126 14 -335 -120 -518 l-29 -39 -35 71 c-101 200 -133 373 -87 475
41 93 131 126 214 79z m-900 -275 c185 -58 351 -228 479 -493 26 -55 48 -107
48 -116 0 -42 -227 -158 -361 -184 -86 -17 -242 1 -327 37 -127 56 -241 167
-304 297 -38 77 -41 90 -41 165 0 81 1 89 21 137 16 40 88 106 145 135 105 54
217 61 340 22z m2217 -272 c14 -3 36 -8 49 -11 57 -10 166 -61 224 -102 184
-135 278 -306 279 -513 2 -336 -257 -647 -617 -741 -85 -22 -248 -30 -341 -16
-131 18 -308 87 -414 161 -102 71 -230 193 -230 218 0 32 -58 259 -95 368 -39
120 -47 97 72 216 226 226 481 369 748 418 78 15 268 16 325 2z m-1380 -427
c11 -38 10 -42 -17 -65 -15 -13 -31 -24 -34 -24 -3 0 -12 15 -21 33 -15 32
-15 33 19 65 19 18 37 32 39 32 2 0 8 -18 14 -41z m63 -259 c-7 -8 -22 24 -16
34 4 5 10 1 13 -10 4 -10 6 -21 3 -24z m-125 -273 c32 -68 76 -152 96 -187 21
-35 38 -71 38 -79 3 -49 -36 -276 -69 -406 -8 -33 -17 -67 -18 -75 -45 -193
-208 -629 -317 -845 -175 -348 -459 -538 -680 -455 -147 55 -221 195 -214 404
2 55 7 115 10 131 61 277 186 519 444 864 79 106 259 333 315 398 13 15 69 80
123 143 95 111 204 230 210 230 2 0 30 -55 62 -123z"/>
</g>
</svg>
